<svg width="200" height="200" viewBox="0 0 200 200" xmlns="http://www.w3.org/2000/svg">
<path d="M 100 100 L 100.0 20.0 A 80 80 0 0 1 162.5465185974424 50.12081585130132 Z" fill="#4CAF50" stroke="#333" stroke-width="2" />
<path d="M 100 100 L 162.5465185974424 50.12081585130132 A 80 80 0 0 1 177.9942329745459 117.80167471650515 Z" fill="#ffffff" stroke="#333" stroke-width="2" />
<path d="M 100 100 L 177.9942329745459 117.80167471650515 A 80 80 0 0 1 134.71069912940465 172.07750943219355 Z" fill="#ffffff" stroke="#333" stroke-width="2" />
<path d="M 100 100 L 134.71069912940465 172.07750943219355 A 80 80 0 0 1 65.28930087059535 172.07750943219355 Z" fill="#ffffff" stroke="#333" stroke-width="2" />
<path d="M 100 100 L 65.28930087059535 172.07750943219355 A 80 80 0 0 1 22.005767025454105 117.80167471650516 Z" fill="#ffffff" stroke="#333" stroke-width="2" />
<path d="M 100 100 L 22.005767025454105 117.80167471650516 A 80 80 0 0 1 37.45348140255761 50.12081585130133 Z" fill="#ffffff" stroke="#333" stroke-width="2" />
<path d="M 100 100 L 37.45348140255761 50.12081585130133 A 80 80 0 0 1 99.99999999999999 20.0 Z" fill="#ffffff" stroke="#333" stroke-width="2" />
</svg>