<svg width="200" height="200" viewBox="0 0 200 200" xmlns="http://www.w3.org/2000/svg">
<path d="M 100 100 L 100.0 20.0 A 80 80 0 0 1 151.42300877492315 38.71644455048176 Z" fill="#4CAF50" stroke="#333" stroke-width="2" />
<path d="M 100 100 L 151.42300877492315 38.71644455048176 A 80 80 0 0 1 178.78462024097664 86.10814578664557 Z" fill="#ffffff" stroke="#333" stroke-width="2" />
<path d="M 100 100 L 178.78462024097664 86.10814578664557 A 80 80 0 0 1 169.2820323027551 140.0 Z" fill="#ffffff" stroke="#333" stroke-width="2" />
<path d="M 100 100 L 169.2820323027551 140.0 A 80 80 0 0 1 127.3616114660535 175.17540966287265 Z" fill="#ffffff" stroke="#333" stroke-width="2" />
<path d="M 100 100 L 127.3616114660535 175.17540966287265 A 80 80 0 0 1 72.63838853394651 175.17540966287268 Z" fill="#ffffff" stroke="#333" stroke-width="2" />
<path d="M 100 100 L 72.63838853394651 175.17540966287268 A 80 80 0 0 1 30.717967697244916 140.00000000000003 Z" fill="#ffffff" stroke="#333" stroke-width="2" />
<path d="M 100 100 L 30.717967697244916 140.00000000000003 A 80 80 0 0 1 21.21537975902335 86.1081457866456 Z" fill="#ffffff" stroke="#333" stroke-width="2" />
<path d="M 100 100 L 21.21537975902335 86.1081457866456 A 80 80 0 0 1 48.57699122507684 38.71644455048177 Z" fill="#ffffff" stroke="#333" stroke-width="2" />
<path d="M 100 100 L 48.57699122507684 38.71644455048177 A 80 80 0 0 1 99.99999999999999 20.0 Z" fill="#ffffff" stroke="#333" stroke-width="2" />
</svg>