<svg width="200" height="200" viewBox="0 0 200 200" xmlns="http://www.w3.org/2000/svg">
<path d="M 100 100 L 100.0 20.0 A 80 80 0 0 1 156.5685424949238 43.4314575050762 Z" fill="#4CAF50" stroke="#333" stroke-width="2" />
<path d="M 100 100 L 156.5685424949238 43.4314575050762 A 80 80 0 0 1 180.0 100.0 Z" fill="#4CAF50" stroke="#333" stroke-width="2" />
<path d="M 100 100 L 180.0 100.0 A 80 80 0 0 1 156.5685424949238 156.5685424949238 Z" fill="#4CAF50" stroke="#333" stroke-width="2" />
<path d="M 100 100 L 156.5685424949238 156.5685424949238 A 80 80 0 0 1 100.0 180.0 Z" fill="#4CAF50" stroke="#333" stroke-width="2" />
<path d="M 100 100 L 100.0 180.0 A 80 80 0 0 1 43.4314575050762 156.5685424949238 Z" fill="#4CAF50" stroke="#333" stroke-width="2" />
<path d="M 100 100 L 43.4314575050762 156.5685424949238 A 80 80 0 0 1 20.0 100.00000000000001 Z" fill="#ffffff" stroke="#333" stroke-width="2" />
<path d="M 100 100 L 20.0 100.00000000000001 A 80 80 0 0 1 43.43145750507618 43.4314575050762 Z" fill="#ffffff" stroke="#333" stroke-width="2" />
<path d="M 100 100 L 43.43145750507618 43.4314575050762 A 80 80 0 0 1 99.99999999999999 20.0 Z" fill="#ffffff" stroke="#333" stroke-width="2" />
</svg>