<svg width="200" height="200" viewBox="0 0 200 200" xmlns="http://www.w3.org/2000/svg">
<path d="M 100 100 L 100.0 20.0 A 80 80 0 0 1 169.28203230275508 60.0 Z" fill="#4CAF50" stroke="#333" stroke-width="2" />
<path d="M 100 100 L 169.28203230275508 60.0 A 80 80 0 0 1 169.2820323027551 140.0 Z" fill="#4CAF50" stroke="#333" stroke-width="2" />
<path d="M 100 100 L 169.2820323027551 140.0 A 80 80 0 0 1 100.0 180.0 Z" fill="#4CAF50" stroke="#333" stroke-width="2" />
<path d="M 100 100 L 100.0 180.0 A 80 80 0 0 1 30.717967697244916 140.00000000000003 Z" fill="#4CAF50" stroke="#333" stroke-width="2" />
<path d="M 100 100 L 30.717967697244916 140.00000000000003 A 80 80 0 0 1 30.717967697244873 60.00000000000005 Z" fill="#ffffff" stroke="#333" stroke-width="2" />
<path d="M 100 100 L 30.717967697244873 60.00000000000005 A 80 80 0 0 1 99.99999999999999 20.0 Z" fill="#ffffff" stroke="#333" stroke-width="2" />
</svg>